<?xml version="1.0" encoding="UTF-8" standalone="no"?>
<!DOCTYPE svg PUBLIC "-//W3C//DTD SVG 1.1//EN" "http://www.w3.org/Graphics/SVG/1.1/DTD/svg11.dtd">
<svg version="1.1" xmlns="http://www.w3.org/2000/svg" xmlns:xlink="http://www.w3.org/1999/xlink" preserveAspectRatio="xMidYMid meet" viewBox="0 0 640 640" width="133.33" height="133.33"><defs><path d="M-559.2 -499.9L-559.2 -380.7L-618.8 -380.7L-618.8 -499.9L-559.2 -499.9Z" id="a2DJoFbFAd"></path><path d="M-529.4 194C-529.4 177.5 -542.8 164.2 -559.2 164.2C-565.16 164.2 -594.96 164.2 -648.6 164.2L-648.6 223.8L-559.2 223.8C-539.33 214.93 -529.4 205 -529.4 194Z" id="b216bRhy8i"></path><path d="M-529.4 134.4C-529.4 117.9 -542.7 104.6 -559.2 104.6C-565.16 104.6 -594.96 104.6 -648.6 104.6L-598 164.2L-559.2 164.2C-539.33 155.33 -529.4 145.4 -529.4 134.4Z" id="k4Oqt5wQ9"></path><path d="M-589 -179.2C-589 -179.2 -589 -179.2 -589 -179.2C-621.92 -179.2 -648.6 -205.88 -648.6 -238.8C-648.6 -238.8 -648.6 -238.8 -648.6 -238.8C-648.6 -271.72 -621.92 -298.4 -589 -298.4C-556.08 -298.4 -529.4 -271.72 -529.4 -238.8C-529.4 -238.8 -529.4 -238.8 -529.4 -238.8C-529.4 -205.88 -556.08 -179.2 -589 -179.2Z" id="a1gYVRvcuF"></path><path d="M-529.4 -179.2L-589 -179.2L-589 -238.8L-529.4 -179.2Z" id="b1i1ZeXb5t"></path><path d="M-185.7 194C-185.7 177.5 -199 164.2 -215.5 164.2C-221.46 164.2 -251.26 164.2 -304.9 164.2L-304.9 223.8L-215.5 223.8C-195.63 214.93 -185.7 205 -185.7 194Z" id="e5mlYhYo5t"></path><path d="M-13.9 -37.3C-13.9 -70.2 -40.6 -96.9 -73.5 -96.9C-73.5 -88.95 -73.5 -49.22 -73.5 22.3C-33.77 4.5 -13.9 -15.37 -13.9 -37.3Z" id="c25KK39bU5"></path><path d="M-73.5 -96.9L-133.1 -96.9L-73.5 -37.3L-73.5 -96.9Z" id="a3oPhxtJNq"></path><path d="M-215.5 -96.9L-215.5 22.3L-275.1 22.3L-275.1 -96.9L-215.5 -96.9Z" id="a7NK7uUW3"></path><path d="M-215.5 22.3L-215.5 81.9L-275.1 81.9L-215.5 22.3Z" id="b2CtLlf3me"></path><path d="M-245.3 164.2L-185.7 104.5L-304.9 104.5L-304.9 164.2L-245.3 164.2Z" id="e18T9GRNO7"></path><path d="M-184.2 -209C-184.2 -225.5 -197.5 -238.8 -214 -238.8C-219.96 -238.8 -249.76 -238.8 -303.4 -238.8L-303.4 -179.2L-214 -179.2C-194.13 -188.07 -184.2 -198 -184.2 -209Z" id="c2kfJZAKaw"></path><path d="M-306.4 -268.6C-306.4 -285.1 -293.1 -298.4 -276.6 -298.4C-270.64 -298.4 -240.84 -298.4 -187.2 -298.4L-187.2 -238.8L-276.6 -238.8C-296.47 -247.67 -306.4 -257.6 -306.4 -268.6Z" id="a2cRnQvwa6"></path><path d="M317.5 -416.95C321.47 -416.95 341.34 -416.95 377.1 -416.95L436.7 -416.95L436.7 -476.55L377.1 -476.55C337.37 -458.75 317.5 -438.88 317.5 -416.95Z" id="b1QdDckHFM"></path><path d="M317.5 -416.85C321.47 -416.85 341.34 -416.85 377.1 -416.85L436.7 -416.85L436.7 -357.25L377.1 -357.25C337.37 -375.05 317.5 -394.92 317.5 -416.85Z" id="eukmJC8EL"></path><path d="M-241.3 -499.9L-241.3 -380.7L-300.9 -380.7L-300.9 -499.9L-241.3 -499.9Z" id="d18IyMDCog"></path><path d="M-189.7 -380.7L-293 -440.3L-189.7 -499.9L-189.7 -380.7Z" id="d45gFhf4pZ"></path><path d="M1335.9 -544.6L1335.9 -425.4L1276.3 -425.4L1276.3 -544.6L1335.9 -544.6Z" id="bc7XDfwfF"></path><path d="M1395.6 -544.6L1395.6 -425.4L1336 -425.4L1336 -544.6L1395.6 -544.6Z" id="d5nRullzox"></path><path d="M1335.9 -343.1L1335.9 -223.9L1276.3 -223.9L1276.3 -343.1L1335.9 -343.1Z" id="a2Fp52vPib"></path><path d="M1395.6 -313.3C1395.6 -329.8 1382.3 -343.1 1365.8 -343.1C1359.84 -343.1 1330.04 -343.1 1276.4 -343.1L1276.4 -283.5L1365.8 -283.5C1385.67 -292.37 1395.6 -302.3 1395.6 -313.3Z" id="aNJExwQtL"></path><path d="M1293.8 278.8C1317.1 255.5 1354.8 255.5 1378.1 278.8C1372.48 284.42 1344.38 312.52 1293.8 363.1C1278.27 322.43 1278.27 294.33 1293.8 278.8Z" id="e2xS5NquBG"></path><path d="M1378.1 363.1C1401.4 339.8 1401.4 302.1 1378.1 278.8C1372.48 284.42 1344.38 312.52 1293.8 363.1C1334.47 378.63 1362.57 378.63 1378.1 363.1Z" id="a250ku5vAm"></path><path d="M1364.45 -163.76L1406.59 -121.62L1307.38 -22.41L1265.24 -64.56L1364.45 -163.76Z" id="f21eqOpmYA"></path><path d="M1406.64 -64.57L1364.5 -22.43L1265.29 -121.64L1307.43 -163.78L1406.64 -64.57Z" id="a5EDqVuyzv"></path><path d="M-417.2 104.5L-417.2 179L-476.8 179L-476.8 104.5L-417.2 104.5Z" id="a5dfzmaz4"></path><path d="M-357.6 104.5L-357.6 223.7L-417.2 223.7L-417.2 104.5L-357.6 104.5Z" id="bmaQndkfP"></path><path d="M271.8 -387.1C271.8 -403.6 258.5 -416.9 242 -416.9C236.04 -416.9 206.24 -416.9 152.6 -416.9L152.6 -357.3L242 -357.3C261.87 -366.17 271.8 -376.1 271.8 -387.1Z" id="deMHjgNvo"></path><path d="M271.8 -446.8C271.8 -463.3 258.5 -476.6 242 -476.6C236.04 -476.6 206.24 -476.6 152.6 -476.6L152.6 -417L242 -417C261.87 -425.87 271.8 -435.8 271.8 -446.8Z" id="fiERb1Va5"></path><path d="M-357.6 -268.6C-357.6 -285.1 -370.9 -298.4 -387.4 -298.4C-393.36 -298.4 -423.16 -298.4 -476.8 -298.4L-476.8 -238.8L-387.4 -238.8C-367.53 -247.67 -357.6 -257.6 -357.6 -268.6Z" id="eoRjFuRXt"></path><path d="M-476.8 -298.4L-476.8 -179.2L-357.6 -179.2L-476.8 -298.4Z" id="dfLfmrScP"></path><path d="M-417.2 -380.7C-384.3 -380.7 -357.6 -407.4 -357.6 -440.3C-357.6 -444.27 -357.6 -464.14 -357.6 -499.9L-417.2 -499.9C-417.2 -428.38 -417.2 -388.65 -417.2 -380.7Z" id="c26Vh0rKnY"></path><path d="M-417.2 -380.7L-476.8 -380.7L-417.2 -440.3L-417.2 -380.7Z" id="bbPEWmHOKb"></path><path d="M1134.3 -22.4C1150.8 -22.4 1164.1 -35.7 1164.1 -52.2C1164.1 -58.16 1164.1 -87.96 1164.1 -141.6L1104.5 -141.6L1104.5 -52.2C1113.37 -32.33 1123.3 -22.4 1134.3 -22.4Z" id="cEjG5jkj4"></path><path d="M1193.9 -22.4C1210.4 -22.4 1223.7 -35.7 1223.7 -52.2C1223.7 -58.16 1223.7 -87.96 1223.7 -141.6L1164.1 -141.6L1164.1 -52.2C1172.97 -32.33 1182.9 -22.4 1193.9 -22.4Z" id="bK7KaLTOW"></path><path d="M1104.5 -485C1108.47 -485 1128.34 -485 1164.1 -485L1164.1 -485L1223.7 -544.6L1164.1 -544.6C1124.37 -526.8 1104.5 -506.93 1104.5 -485Z" id="a1cQmIVWrL"></path><path d="M1022 -499.9L1022 -455.2L932.6 -455.2L932.6 -499.9L1022 -499.9Z" id="cFtLMceep"></path><path d="M1104.5 -283.5C1104.5 -316.4 1131.2 -343.1 1164.1 -343.1C1164.1 -335.15 1164.1 -295.42 1164.1 -223.9C1124.37 -241.7 1104.5 -261.57 1104.5 -283.5Z" id="atynJ3qCl"></path><path d="M1223.7 -283.5C1223.7 -316.4 1197 -343.1 1164.1 -343.1C1164.1 -335.15 1164.1 -295.42 1164.1 -223.9C1203.83 -241.7 1223.7 -261.57 1223.7 -283.5Z" id="a3zbyT5Vj"></path><path d="M1223.7 320.9C1223.7 353.8 1197 380.5 1164.1 380.5C1164.1 372.55 1164.1 332.82 1164.1 261.3C1203.83 279.1 1223.7 298.97 1223.7 320.9Z" id="c2f55rpZqz"></path><path d="M1104.5 291.1C1104.5 307.6 1117.8 320.9 1134.3 320.9C1136.29 320.9 1146.22 320.9 1164.1 320.9L1164.1 261.3L1134.3 261.3C1114.43 270.17 1104.5 280.1 1104.5 291.1Z" id="b1aZX4wFs0"></path><path d="M1164.1 380.6L1104.5 380.6L1164.1 321L1164.1 380.6Z" id="g668cDvuIE"></path><path d="M-13.9 -432.8L-13.9 -380.6L-133.1 -380.6L-133.1 -432.8L-13.9 -432.8Z" id="b1DyyWTXwO"></path><path d="M-73.5 -499.9L-73.5 -380.7L-133.1 -380.7L-133.1 -499.9L-73.5 -499.9Z" id="d22TUlAJ2x"></path><path d="M540.5 -476.5L540.5 -357.3L480.9 -357.3L480.9 -476.5L540.5 -476.5Z" id="d1p7MLtbmh"></path><path d="M600.1 -416.9C600.1 -384 573.4 -357.3 540.5 -357.3C540.5 -365.25 540.5 -404.98 540.5 -476.5C580.23 -458.7 600.1 -438.83 600.1 -416.9Z" id="d1rNIuFdUq"></path><path d="M-133.1 164.2C-133.1 131.3 -106.4 104.6 -73.5 104.6C-73.5 112.55 -73.5 152.28 -73.5 223.8C-113.23 206 -133.1 186.13 -133.1 164.2Z" id="a5qEIVkcwR"></path><path d="M-13.9 194C-13.9 177.5 -27.2 164.2 -43.7 164.2C-45.69 164.2 -55.62 164.2 -73.5 164.2L-73.5 223.8L-43.7 223.8C-23.83 214.93 -13.9 205 -13.9 194Z" id="br7v6lzQL"></path><path d="M-73.5 104.5L-13.8 104.5L-73.5 164.2L-73.5 104.5Z" id="b1zqU7DqWz"></path><path d="M880 261.3L880 313.5L760.8 313.5L760.8 261.3L880 261.3Z" id="b1eYyObZXh"></path><path d="M880 261.3L880 380.5L820.4 380.5L820.4 261.3L880 261.3Z" id="a1wHIDiOXm"></path><path d="M880 -141.6L880 -82L760.8 -82L760.8 -141.6L880 -141.6Z" id="d6ZgoqcCw"></path><path d="M820.4 -22.4C787.5 -22.4 760.8 -49.1 760.8 -82C768.75 -82 808.48 -82 880 -82C862.2 -42.27 842.33 -22.4 820.4 -22.4Z" id="aQwb9gt7x"></path><path d="M760.8 -343.1L760.8 -223.9L880 -223.9L760.8 -343.1Z" id="ac9SSJI0Z"></path><path d="M880 -343.1L880 -223.9L760.8 -223.9L880 -343.1Z" id="b2hRZFY1EJ"></path><path d="M880 -470L880 -425.3L760.8 -425.3L760.8 -470L880 -470Z" id="aFwmp4SCF"></path><path d="M850.2 -514.8L850.2 -470.1L760.8 -470.1L760.8 -514.8L850.2 -514.8Z" id="a3FwAVT15"></path><path d="M820.4 -544.6L820.4 -425.4L760.8 -425.4L760.8 -544.6L820.4 -544.6Z" id="ehICOYEX9"></path><path d="M992.3 321C974.42 321 964.49 321 962.5 321C946 321 932.7 334.3 932.7 350.8C932.7 367.3 946 380.6 962.5 380.6C964.49 380.6 974.42 380.6 992.3 380.6C1010.18 380.6 1020.11 380.6 1022.1 380.6C1038.6 380.6 1051.9 367.3 1051.9 350.8C1051.9 334.3 1038.5 321 1022.1 321C1018.13 321 1008.19 321 992.3 321Z" id="f61ag4hVcG"></path><path d="M992.3 261.3C974.42 261.3 964.49 261.3 962.5 261.3C946 261.3 932.7 274.6 932.7 291.1C932.7 307.6 946 320.9 962.5 320.9C964.49 320.9 974.42 320.9 992.3 320.9C1010.18 320.9 1020.11 320.9 1022.1 320.9C1038.6 320.9 1051.9 307.6 1051.9 291.1C1051.9 274.7 1038.5 261.3 1022.1 261.3C1018.13 261.3 1008.19 261.3 992.3 261.3Z" id="f88h1Kc01i"></path><path d="M1051.8 -343.1L1051.8 -223.9L992.2 -223.9L992.2 -343.1L1051.8 -343.1Z" id="c2miwHbFDw"></path><path d="M1104.5 -484.9C1108.47 -484.9 1128.34 -484.9 1164.1 -484.9L1223.7 -484.9L1223.7 -425.3L1164.1 -425.3C1124.37 -443.1 1104.5 -462.97 1104.5 -484.9Z" id="a4LhHEkkoC"></path><path d="M1051.8 -544.6L1051.8 -499.9L932.6 -499.9L932.6 -544.6L1051.8 -544.6Z" id="a3gHmoQApq"></path><path d="M932.6 -343.1L932.6 -223.9L1051.9 -223.9L932.6 -343.1Z" id="baUdYDx9g9"></path><path d="M992.2 -544.6L992.2 -425.4L932.6 -425.4L932.6 -544.6L992.2 -544.6Z" id="eHj9ODotG"></path><path d="M1051.9 -141.6L992.2 -22.4L932.6 -141.6L1051.9 -141.6Z" id="bvL1G66X5"></path><path d="M992.6 -141.6L932.6 -141.6L962.6 -81.6L992.6 -141.6Z" id="a337oiAihw"></path><path d="M1274.9 149.3C1274.9 132.8 1288.2 119.5 1304.7 119.5C1310.66 119.5 1340.46 119.5 1394.1 119.5L1394.1 179.1L1304.7 179.1C1284.83 170.23 1274.9 160.3 1274.9 149.3Z" id="b2wjB91mB4"></path><path d="M1397.1 89.7C1397.1 73.2 1383.8 59.9 1367.3 59.9C1361.34 59.9 1331.54 59.9 1277.9 59.9L1330.4 119.5L1367.3 119.5C1387.17 110.63 1397.1 100.7 1397.1 89.7Z" id="b6nQbAQ8d6"></path><path d="M-476.8 -96.9L-357.6 -96.9L-417.2 -37.3L-476.8 -37.3L-476.8 -96.9Z" id="c3sLjEeGuc"></path><path d="M-476.8 22.3L-357.6 22.3L-357.6 -37.3L-417.2 -37.3L-476.8 22.3Z" id="e1FcmSKSqt"></path><path d="M1223.7 59.9L1223.7 179.1L1164.1 179.1L1164.1 59.9L1223.7 59.9Z" id="aqEF8ziOr"></path><path d="M1164.1 119.5L1104.5 119.5L1164.1 59.9L1164.1 119.5Z" id="b6aIBIomMp"></path><path d="M-73.5 22.3L-73.5 81.9L-133.1 81.9L-133.1 22.3L-73.5 22.3Z" id="ffeorMXib"></path><path d="M850.2 119.5L850.2 179.1L790.6 179.1L850.2 119.5Z" id="d25mVRPxrA"></path><path d="M1022 119.5L1022 179.1L962.4 179.1L962.4 119.5L1022 119.5Z" id="czuB4KwDo"></path><path d="M-43.7 -298.4L-43.7 -179.2L-103.3 -179.2L-103.3 -298.4L-43.7 -298.4Z" id="awuA2pSx2"></path><path d="M-13.9 -298.4L-13.9 -246.2L-133.1 -246.2L-133.1 -298.4L-13.9 -298.4Z" id="awyhalZJQ"></path><path d="M-559.2 -96.9L-559.2 22.3L-618.8 22.3L-618.8 -96.9L-559.2 -96.9Z" id="a3lG5gHs6n"></path><path d="M-529.4 -96.9L-589 6.3L-648.6 -96.9L-529.4 -96.9Z" id="d2IXezGca9"></path><path d="M3 640L320.08 5.32L637.15 640L3 640Z" id="b2CMVQnuCs"></path><path d="M317.95 640L637.15 640L477.55 320.8L317.95 640Z" id="d17sKIGhxh"></path></defs><g><g><g><use xlink:href="#a2DJoFbFAd" opacity="1" fill="#e7c157" fill-opacity="1"></use><g><use xlink:href="#a2DJoFbFAd" opacity="1" fill-opacity="0" stroke="#000000" stroke-width="1" stroke-opacity="0"></use></g></g><g><use xlink:href="#b216bRhy8i" opacity="1" fill="#a2562a" fill-opacity="1"></use><g><use xlink:href="#b216bRhy8i" opacity="1" fill-opacity="0" stroke="#000000" stroke-width="1" stroke-opacity="0"></use></g></g><g><use xlink:href="#k4Oqt5wQ9" opacity="1" fill="#c06735" fill-opacity="1"></use><g><use xlink:href="#k4Oqt5wQ9" opacity="1" fill-opacity="0" stroke="#000000" stroke-width="1" stroke-opacity="0"></use></g></g><g><use xlink:href="#a1gYVRvcuF" opacity="1" fill="#c54168" fill-opacity="1"></use><g><use xlink:href="#a1gYVRvcuF" opacity="1" fill-opacity="0" stroke="#000000" stroke-width="1" stroke-opacity="0"></use></g></g><g><use xlink:href="#b1i1ZeXb5t" opacity="1" fill="#8f1144" fill-opacity="1"></use><g><use xlink:href="#b1i1ZeXb5t" opacity="1" fill-opacity="0" stroke="#000000" stroke-width="1" stroke-opacity="0"></use></g></g><g><use xlink:href="#e5mlYhYo5t" opacity="1" fill="#f15b40" fill-opacity="1"></use><g><use xlink:href="#e5mlYhYo5t" opacity="1" fill-opacity="0" stroke="#000000" stroke-width="1" stroke-opacity="0"></use></g></g><g><use xlink:href="#c25KK39bU5" opacity="1" fill="#6f2c91" fill-opacity="1"></use><g><use xlink:href="#c25KK39bU5" opacity="1" fill-opacity="0" stroke="#000000" stroke-width="1" stroke-opacity="0"></use></g></g><g><use xlink:href="#a3oPhxtJNq" opacity="1" fill="#a154a1" fill-opacity="1"></use><g><use xlink:href="#a3oPhxtJNq" opacity="1" fill-opacity="0" stroke="#000000" stroke-width="1" stroke-opacity="0"></use></g></g><g><use xlink:href="#a7NK7uUW3" opacity="1" fill="#977348" fill-opacity="1"></use><g><use xlink:href="#a7NK7uUW3" opacity="1" fill-opacity="0" stroke="#000000" stroke-width="1" stroke-opacity="0"></use></g></g><g><use xlink:href="#b2CtLlf3me" opacity="1" fill="#ba9765" fill-opacity="1"></use><g><use xlink:href="#b2CtLlf3me" opacity="1" fill-opacity="0" stroke="#000000" stroke-width="1" stroke-opacity="0"></use></g></g><g><use xlink:href="#e18T9GRNO7" opacity="1" fill="#f47c5e" fill-opacity="1"></use><g><use xlink:href="#e18T9GRNO7" opacity="1" fill-opacity="0" stroke="#000000" stroke-width="1" stroke-opacity="0"></use></g></g><g><use xlink:href="#c2kfJZAKaw" opacity="1" fill="#851f83" fill-opacity="1"></use><g><use xlink:href="#c2kfJZAKaw" opacity="1" fill-opacity="0" stroke="#000000" stroke-width="1" stroke-opacity="0"></use></g></g><g><use xlink:href="#a2cRnQvwa6" opacity="1" fill="#993f98" fill-opacity="1"></use><g><use xlink:href="#a2cRnQvwa6" opacity="1" fill-opacity="0" stroke="#000000" stroke-width="1" stroke-opacity="0"></use></g></g><g><use xlink:href="#b1QdDckHFM" opacity="1" fill="#e3974c" fill-opacity="1"></use><g><use xlink:href="#b1QdDckHFM" opacity="1" fill-opacity="0" stroke="#000000" stroke-width="1" stroke-opacity="0"></use></g></g><g><use xlink:href="#eukmJC8EL" opacity="1" fill="#dd8328" fill-opacity="1"></use><g><use xlink:href="#eukmJC8EL" opacity="1" fill-opacity="0" stroke="#000000" stroke-width="1" stroke-opacity="0"></use></g></g><g><use xlink:href="#d18IyMDCog" opacity="1" fill="#43978d" fill-opacity="1"></use><g><use xlink:href="#d18IyMDCog" opacity="1" fill-opacity="0" stroke="#000000" stroke-width="1" stroke-opacity="0"></use></g></g><g><use xlink:href="#d45gFhf4pZ" opacity="1" fill="#2f736a" fill-opacity="1"></use><g><use xlink:href="#d45gFhf4pZ" opacity="1" fill-opacity="0" stroke="#000000" stroke-width="1" stroke-opacity="0"></use></g></g><g><use xlink:href="#bc7XDfwfF" opacity="1" fill="#82ca9c" fill-opacity="1"></use><g><use xlink:href="#bc7XDfwfF" opacity="1" fill-opacity="0" stroke="#000000" stroke-width="1" stroke-opacity="0"></use></g></g><g><use xlink:href="#d5nRullzox" opacity="1" fill="#76b88f" fill-opacity="1"></use><g><use xlink:href="#d5nRullzox" opacity="1" fill-opacity="0" stroke="#000000" stroke-width="1" stroke-opacity="0"></use></g></g><g><use xlink:href="#a2Fp52vPib" opacity="1" fill="#b0dfdb" fill-opacity="1"></use><g><use xlink:href="#a2Fp52vPib" opacity="1" fill-opacity="0" stroke="#000000" stroke-width="1" stroke-opacity="0"></use></g></g><g><use xlink:href="#aNJExwQtL" opacity="1" fill="#99c2c0" fill-opacity="1"></use><g><use xlink:href="#aNJExwQtL" opacity="1" fill-opacity="0" stroke="#000000" stroke-width="1" stroke-opacity="0"></use></g></g><g><use xlink:href="#e2xS5NquBG" opacity="1" fill="#c54168" fill-opacity="1"></use><g><use xlink:href="#e2xS5NquBG" opacity="1" fill-opacity="0" stroke="#000000" stroke-width="1" stroke-opacity="0"></use></g></g><g><use xlink:href="#a250ku5vAm" opacity="1" fill="#8f1144" fill-opacity="1"></use><g><use xlink:href="#a250ku5vAm" opacity="1" fill-opacity="0" stroke="#000000" stroke-width="1" stroke-opacity="0"></use></g></g><g><use xlink:href="#f21eqOpmYA" opacity="1" fill="#ffcb05" fill-opacity="1"></use><g><use xlink:href="#f21eqOpmYA" opacity="1" fill-opacity="0" stroke="#000000" stroke-width="1" stroke-opacity="0"></use></g></g><g><use xlink:href="#a5EDqVuyzv" opacity="1" fill="#ffdd00" fill-opacity="1"></use><g><use xlink:href="#a5EDqVuyzv" opacity="1" fill-opacity="0" stroke="#000000" stroke-width="1" stroke-opacity="0"></use></g></g><g><use xlink:href="#a5dfzmaz4" opacity="1" fill="#2f736a" fill-opacity="1"></use><g><use xlink:href="#a5dfzmaz4" opacity="1" fill-opacity="0" stroke="#000000" stroke-width="1" stroke-opacity="0"></use></g></g><g><use xlink:href="#bmaQndkfP" opacity="1" fill="#43978d" fill-opacity="1"></use><g><use xlink:href="#bmaQndkfP" opacity="1" fill-opacity="0" stroke="#000000" stroke-width="1" stroke-opacity="0"></use></g></g><g><use xlink:href="#deMHjgNvo" opacity="1" fill="#ffcb05" fill-opacity="1"></use><g><use xlink:href="#deMHjgNvo" opacity="1" fill-opacity="0" stroke="#000000" stroke-width="1" stroke-opacity="0"></use></g></g><g><use xlink:href="#fiERb1Va5" opacity="1" fill="#ffdd00" fill-opacity="1"></use><g><use xlink:href="#fiERb1Va5" opacity="1" fill-opacity="0" stroke="#000000" stroke-width="1" stroke-opacity="0"></use></g></g><g><use xlink:href="#eoRjFuRXt" opacity="1" fill="#4b8fcc" fill-opacity="1"></use><g><use xlink:href="#eoRjFuRXt" opacity="1" fill-opacity="0" stroke="#000000" stroke-width="1" stroke-opacity="0"></use></g></g><g><use xlink:href="#dfLfmrScP" opacity="1" fill="#0072bc" fill-opacity="1"></use><g><use xlink:href="#dfLfmrScP" opacity="1" fill-opacity="0" stroke="#000000" stroke-width="1" stroke-opacity="0"></use></g></g><g><use xlink:href="#c26Vh0rKnY" opacity="1" fill="#c06735" fill-opacity="1"></use><g><use xlink:href="#c26Vh0rKnY" opacity="1" fill-opacity="0" stroke="#000000" stroke-width="1" stroke-opacity="0"></use></g></g><g><use xlink:href="#bbPEWmHOKb" opacity="1" fill="#a2562a" fill-opacity="1"></use><g><use xlink:href="#bbPEWmHOKb" opacity="1" fill-opacity="0" stroke="#000000" stroke-width="1" stroke-opacity="0"></use></g></g><g><use xlink:href="#cEjG5jkj4" opacity="1" fill="#57c1a5" fill-opacity="1"></use><g><use xlink:href="#cEjG5jkj4" opacity="1" fill-opacity="0" stroke="#000000" stroke-width="1" stroke-opacity="0"></use></g></g><g><use xlink:href="#bK7KaLTOW" opacity="1" fill="#36b295" fill-opacity="1"></use><g><use xlink:href="#bK7KaLTOW" opacity="1" fill-opacity="0" stroke="#000000" stroke-width="1" stroke-opacity="0"></use></g></g><g><use xlink:href="#a1cQmIVWrL" opacity="1" fill="#00556e" fill-opacity="1"></use><g><use xlink:href="#a1cQmIVWrL" opacity="1" fill-opacity="0" stroke="#000000" stroke-width="1" stroke-opacity="0"></use></g></g><g><use xlink:href="#cFtLMceep" opacity="1" fill="#a154a1" fill-opacity="1"></use><g><use xlink:href="#cFtLMceep" opacity="1" fill-opacity="0" stroke="#000000" stroke-width="1" stroke-opacity="0"></use></g></g><g><use xlink:href="#atynJ3qCl" opacity="1" fill="#f7941e" fill-opacity="1"></use><g><use xlink:href="#atynJ3qCl" opacity="1" fill-opacity="0" stroke="#000000" stroke-width="1" stroke-opacity="0"></use></g></g><g><use xlink:href="#a3zbyT5Vj" opacity="1" fill="#e0861a" fill-opacity="1"></use><g><use xlink:href="#a3zbyT5Vj" opacity="1" fill-opacity="0" stroke="#000000" stroke-width="1" stroke-opacity="0"></use></g></g><g><use xlink:href="#c2f55rpZqz" opacity="1" fill="#b0dfdb" fill-opacity="1"></use><g><use xlink:href="#c2f55rpZqz" opacity="1" fill-opacity="0" stroke="#000000" stroke-width="1" stroke-opacity="0"></use></g></g><g><use xlink:href="#b1aZX4wFs0" opacity="1" fill="#99c2c0" fill-opacity="1"></use><g><use xlink:href="#b1aZX4wFs0" opacity="1" fill-opacity="0" stroke="#000000" stroke-width="1" stroke-opacity="0"></use></g></g><g><use xlink:href="#g668cDvuIE" opacity="1" fill="#99c2c0" fill-opacity="1"></use><g><use xlink:href="#g668cDvuIE" opacity="1" fill-opacity="0" stroke="#000000" stroke-width="1" stroke-opacity="0"></use></g></g><g><use xlink:href="#b1DyyWTXwO" opacity="1" fill="#f15b40" fill-opacity="1"></use><g><use xlink:href="#b1DyyWTXwO" opacity="1" fill-opacity="0" stroke="#000000" stroke-width="1" stroke-opacity="0"></use></g></g><g><use xlink:href="#d22TUlAJ2x" opacity="1" fill="#f47c5e" fill-opacity="1"></use><g><use xlink:href="#d22TUlAJ2x" opacity="1" fill-opacity="0" stroke="#000000" stroke-width="1" stroke-opacity="0"></use></g></g><g><use xlink:href="#d1p7MLtbmh" opacity="1" fill="#bfd730" fill-opacity="1"></use><g><use xlink:href="#d1p7MLtbmh" opacity="1" fill-opacity="0" stroke="#000000" stroke-width="1" stroke-opacity="0"></use></g></g><g><use xlink:href="#d1rNIuFdUq" opacity="1" fill="#8dc63f" fill-opacity="1"></use><g><use xlink:href="#d1rNIuFdUq" opacity="1" fill-opacity="0" stroke="#000000" stroke-width="1" stroke-opacity="0"></use></g></g><g><use xlink:href="#a5qEIVkcwR" opacity="1" fill="#ed0973" fill-opacity="1"></use><g><use xlink:href="#a5qEIVkcwR" opacity="1" fill-opacity="0" stroke="#000000" stroke-width="1" stroke-opacity="0"></use></g></g><g><use xlink:href="#br7v6lzQL" opacity="1" fill="#f05b89" fill-opacity="1"></use><g><use xlink:href="#br7v6lzQL" opacity="1" fill-opacity="0" stroke="#000000" stroke-width="1" stroke-opacity="0"></use></g></g><g><use xlink:href="#b1zqU7DqWz" opacity="1" fill="#f05b89" fill-opacity="1"></use><g><use xlink:href="#b1zqU7DqWz" opacity="1" fill-opacity="0" stroke="#000000" stroke-width="1" stroke-opacity="0"></use></g></g><g><use xlink:href="#b1eYyObZXh" opacity="1" fill="#87543c" fill-opacity="1"></use><g><use xlink:href="#b1eYyObZXh" opacity="1" fill-opacity="0" stroke="#000000" stroke-width="1" stroke-opacity="0"></use></g></g><g><use xlink:href="#a1wHIDiOXm" opacity="1" fill="#5d3724" fill-opacity="1"></use><g><use xlink:href="#a1wHIDiOXm" opacity="1" fill-opacity="0" stroke="#000000" stroke-width="1" stroke-opacity="0"></use></g></g><g><use xlink:href="#d6ZgoqcCw" opacity="1" fill="#858d36" fill-opacity="1"></use><g><use xlink:href="#d6ZgoqcCw" opacity="1" fill-opacity="0" stroke="#000000" stroke-width="1" stroke-opacity="0"></use></g></g><g><use xlink:href="#aQwb9gt7x" opacity="1" fill="#999e54" fill-opacity="1"></use><g><use xlink:href="#aQwb9gt7x" opacity="1" fill-opacity="0" stroke="#000000" stroke-width="1" stroke-opacity="0"></use></g></g><g><use xlink:href="#ac9SSJI0Z" opacity="1" fill="#f05b89" fill-opacity="1"></use><g><use xlink:href="#ac9SSJI0Z" opacity="1" fill-opacity="0" stroke="#000000" stroke-width="1" stroke-opacity="0"></use></g></g><g><use xlink:href="#b2hRZFY1EJ" opacity="1" fill="#ed0973" fill-opacity="1"></use><g><use xlink:href="#b2hRZFY1EJ" opacity="1" fill-opacity="0" stroke="#000000" stroke-width="1" stroke-opacity="0"></use></g></g><g><use xlink:href="#aFwmp4SCF" opacity="1" fill="#ba9765" fill-opacity="1"></use><g><use xlink:href="#aFwmp4SCF" opacity="1" fill-opacity="0" stroke="#000000" stroke-width="1" stroke-opacity="0"></use></g></g><g><use xlink:href="#a3FwAVT15" opacity="1" fill="#ba9765" fill-opacity="1"></use><g><use xlink:href="#a3FwAVT15" opacity="1" fill-opacity="0" stroke="#000000" stroke-width="1" stroke-opacity="0"></use></g></g><g><use xlink:href="#ehICOYEX9" opacity="1" fill="#977348" fill-opacity="1"></use><g><use xlink:href="#ehICOYEX9" opacity="1" fill-opacity="0" stroke="#000000" stroke-width="1" stroke-opacity="0"></use></g></g><g><use xlink:href="#f61ag4hVcG" opacity="1" fill="#e0861a" fill-opacity="1"></use><g><use xlink:href="#f61ag4hVcG" opacity="1" fill-opacity="0" stroke="#000000" stroke-width="1" stroke-opacity="0"></use></g></g><g><use xlink:href="#f88h1Kc01i" opacity="1" fill="#f7941e" fill-opacity="1"></use><g><use xlink:href="#f88h1Kc01i" opacity="1" fill-opacity="0" stroke="#000000" stroke-width="1" stroke-opacity="0"></use></g></g><g><use xlink:href="#c2miwHbFDw" opacity="1" fill="#5d3724" fill-opacity="1"></use><g><use xlink:href="#c2miwHbFDw" opacity="1" fill-opacity="0" stroke="#000000" stroke-width="1" stroke-opacity="0"></use></g></g><g><use xlink:href="#a4LhHEkkoC" opacity="1" fill="#002c41" fill-opacity="1"></use><g><use xlink:href="#a4LhHEkkoC" opacity="1" fill-opacity="0" stroke="#000000" stroke-width="1" stroke-opacity="0"></use></g></g><g><use xlink:href="#a3gHmoQApq" opacity="1" fill="#a154a1" fill-opacity="1"></use><g><use xlink:href="#a3gHmoQApq" opacity="1" fill-opacity="0" stroke="#000000" stroke-width="1" stroke-opacity="0"></use></g></g><g><use xlink:href="#baUdYDx9g9" opacity="1" fill="#87543c" fill-opacity="1"></use><g><use xlink:href="#baUdYDx9g9" opacity="1" fill-opacity="0" stroke="#000000" stroke-width="1" stroke-opacity="0"></use></g></g><g><use xlink:href="#eHj9ODotG" opacity="1" fill="#6f2c91" fill-opacity="1"></use><g><use xlink:href="#eHj9ODotG" opacity="1" fill-opacity="0" stroke="#000000" stroke-width="1" stroke-opacity="0"></use></g></g><g><use xlink:href="#bvL1G66X5" opacity="1" fill="#c06735" fill-opacity="1"></use><g><use xlink:href="#bvL1G66X5" opacity="1" fill-opacity="0" stroke="#000000" stroke-width="1" stroke-opacity="0"></use></g></g><g><use xlink:href="#a337oiAihw" opacity="1" fill="#a2562a" fill-opacity="1"></use><g><use xlink:href="#a337oiAihw" opacity="1" fill-opacity="0" stroke="#000000" stroke-width="1" stroke-opacity="0"></use></g></g><g><use xlink:href="#b2wjB91mB4" opacity="1" fill="#d1b04f" fill-opacity="1"></use><g><use xlink:href="#b2wjB91mB4" opacity="1" fill-opacity="0" stroke="#000000" stroke-width="1" stroke-opacity="0"></use></g></g><g><use xlink:href="#b6nQbAQ8d6" opacity="1" fill="#e7c157" fill-opacity="1"></use><g><use xlink:href="#b6nQbAQ8d6" opacity="1" fill-opacity="0" stroke="#000000" stroke-width="1" stroke-opacity="0"></use></g></g><g><use xlink:href="#c3sLjEeGuc" opacity="1" fill="#bfd730" fill-opacity="1"></use><g><use xlink:href="#c3sLjEeGuc" opacity="1" fill-opacity="0" stroke="#000000" stroke-width="1" stroke-opacity="0"></use></g></g><g><use xlink:href="#e1FcmSKSqt" opacity="1" fill="#8dc63f" fill-opacity="1"></use><g><use xlink:href="#e1FcmSKSqt" opacity="1" fill-opacity="0" stroke="#000000" stroke-width="1" stroke-opacity="0"></use></g></g><g><use xlink:href="#aqEF8ziOr" opacity="1" fill="#76b88f" fill-opacity="1"></use><g><use xlink:href="#aqEF8ziOr" opacity="1" fill-opacity="0" stroke="#000000" stroke-width="1" stroke-opacity="0"></use></g></g><g><use xlink:href="#b6aIBIomMp" opacity="1" fill="#82ca9c" fill-opacity="1"></use><g><use xlink:href="#b6aIBIomMp" opacity="1" fill-opacity="0" stroke="#000000" stroke-width="1" stroke-opacity="0"></use></g></g><g><use xlink:href="#ffeorMXib" opacity="1" fill="#a154a1" fill-opacity="1"></use><g><use xlink:href="#ffeorMXib" opacity="1" fill-opacity="0" stroke="#000000" stroke-width="1" stroke-opacity="0"></use></g></g><g><use xlink:href="#d25mVRPxrA" opacity="1" fill="#00556e" fill-opacity="1"></use><g><use xlink:href="#d25mVRPxrA" opacity="1" fill-opacity="0" stroke="#000000" stroke-width="1" stroke-opacity="0"></use></g></g><g><use xlink:href="#czuB4KwDo" opacity="1" fill="#002c41" fill-opacity="1"></use><g><use xlink:href="#czuB4KwDo" opacity="1" fill-opacity="0" stroke="#000000" stroke-width="1" stroke-opacity="0"></use></g></g><g><use xlink:href="#awuA2pSx2" opacity="1" fill="#78cfe1" fill-opacity="1"></use><g><use xlink:href="#awuA2pSx2" opacity="1" fill-opacity="0" stroke="#000000" stroke-width="1" stroke-opacity="0"></use></g></g><g><use xlink:href="#awyhalZJQ" opacity="1" fill="#03bfd7" fill-opacity="1"></use><g><use xlink:href="#awyhalZJQ" opacity="1" fill-opacity="0" stroke="#000000" stroke-width="1" stroke-opacity="0"></use></g></g><g><use xlink:href="#a3lG5gHs6n" opacity="1" fill="#dd8328" fill-opacity="1"></use><g><use xlink:href="#a3lG5gHs6n" opacity="1" fill-opacity="0" stroke="#000000" stroke-width="1" stroke-opacity="0"></use></g></g><g><use xlink:href="#d2IXezGca9" opacity="1" fill="#e3974c" fill-opacity="1"></use><g><use xlink:href="#d2IXezGca9" opacity="1" fill-opacity="0" stroke="#000000" stroke-width="1" stroke-opacity="0"></use></g></g><g><use xlink:href="#b2CMVQnuCs" opacity="1" fill="#78cfe1" fill-opacity="1"></use><g><use xlink:href="#b2CMVQnuCs" opacity="1" fill-opacity="0" stroke="#000000" stroke-width="1" stroke-opacity="0"></use></g></g><g><use xlink:href="#d17sKIGhxh" opacity="1" fill="#03bfd7" fill-opacity="1"></use><g><use xlink:href="#d17sKIGhxh" opacity="1" fill-opacity="0" stroke="#000000" stroke-width="1" stroke-opacity="0"></use></g></g></g></g></svg>